<svg id="Calque_1" data-name="Calque 1" xmlns="http://www.w3.org/2000/svg" viewBox="0 0 311.81 99.47"><defs><style>.cls-1{fill:#1d1d1b;}</style></defs><title>Plan de travail 1</title><path class="cls-1" d="M.06,22.33c6.49-1.2,13-2,19.48-2.68s13-1.16,19.48-1.53,13-.61,19.49-.73,13-.1,19.49.27c13,.72,26,2.62,39,2.93a325.59,325.59,0,0,0,39-1.49c6.49-.56,13-1.19,19.48-1.6s13-.66,19.48-.92c13-.5,26-1,39-.87s26,.67,39,1.53c6.5.43,13,.93,19.49,1.6s13,1.38,19.5,2.4v1.2c-6.5,1.07-13,1.86-19.48,2.54s-13,1.26-19.49,1.74q-19.49,1.43-39,1.8c-13,.24-26-.18-39-.6-6.49-.21-13-.36-19.49-.79s-13-.94-19.49-1.46a323.42,323.42,0,0,0-39-1.21c-13,.4-26,2.39-39,3.2-6.49.42-13,.53-19.48.41s-13-.28-19.5-.6-13-.77-19.49-1.39-13-1.39-19.5-2.55Z"/><path class="cls-1" d="M311.88,49.07c-6.5,1.2-13,2-19.48,2.68s-13,1.16-19.49,1.53-13,.62-19.48.73-13,.11-19.49-.26c-13-.73-26-2.63-39-2.93a323.42,323.42,0,0,0-39,1.48c-6.5.57-13,1.2-19.48,1.6s-13,.67-19.49.92c-13,.51-26,1-39,.88s-26-.68-39-1.53c-6.5-.44-13-.94-19.5-1.61s-13-1.38-19.5-2.4V49c6.49-1.07,13-1.86,19.48-2.54s13-1.26,19.48-1.74q19.48-1.43,39-1.8c13-.24,26,.19,39,.6,6.5.21,13,.36,19.49.79s13,.94,19.5,1.46a323.36,323.36,0,0,0,39,1.21c13-.39,26-2.38,39-3.2,6.5-.42,13-.52,19.49-.4s13,.27,19.49.59,13,.77,19.49,1.39,13,1.39,19.5,2.55Z"/><path class="cls-1" d="M.06,75.59c6.49-1.2,13-2,19.48-2.68s13-1.16,19.48-1.53,13-.62,19.49-.73,13-.11,19.49.26c13,.73,26,2.63,39,2.94a325.59,325.59,0,0,0,39-1.49c6.49-.57,13-1.2,19.48-1.6s13-.67,19.48-.92c13-.51,26-1,39-.88s26,.68,39,1.53c6.5.44,13,.94,19.49,1.61s13,1.38,19.5,2.4v1.2c-6.5,1.07-13,1.86-19.48,2.54s-13,1.26-19.49,1.74q-19.49,1.42-39,1.8c-13,.24-26-.19-39-.6-6.49-.21-13-.36-19.49-.79s-13-.94-19.49-1.46a323.42,323.42,0,0,0-39-1.21c-13,.39-26,2.38-39,3.2-6.49.42-13,.52-19.48.4s-13-.27-19.5-.59-13-.77-19.49-1.39S6.56,78,.06,76.79Z"/></svg>