<svg id="Calque_1" data-name="Calque 1" xmlns="http://www.w3.org/2000/svg" viewBox="0 0 396.85 311.81"><defs><style>.cls-1{fill:#fff;}.cls-2{fill:#1d1d1b;}</style></defs><title>Plan de travail 1</title><path class="cls-1" d="M148.59,240.73c-6.86-1.31-11.22-9.69-12-17.54C133.92,231,130.4,235,126,235c-6.13.18-9.47-8.79-9.47-17.65a33.88,33.88,0,0,1,1.41-9.73,19.23,19.23,0,0,1,4.36-7.84,9.91,9.91,0,0,1,7.55-3.09,9.28,9.28,0,0,1,7.37,3.7c.26-1.34.51-2.43.73-3.26a3.84,3.84,0,0,1,4-2.87,5.16,5.16,0,0,1,3.66,1.6,5.42,5.42,0,0,1,1.67,4.21c0,.47-.18,2.21-.54,5.23a127,127,0,0,0-1,14.23,49.3,49.3,0,0,0,.72,8.42,19.46,19.46,0,0,0,4.18,9.26,2.18,2.18,0,0,1,.58,1.42,2.12,2.12,0,0,1-.33,1.09,1.88,1.88,0,0,1-1.67,1Zm-18.33-13.58a30.27,30.27,0,0,0,2-5.08A148.69,148.69,0,0,0,136,206.64c-.87-2.11-1.89-3.16-3-3.16-2.25,0-4,1.92-5.34,5.73a34,34,0,0,0-1.78,11.44,26.27,26.27,0,0,0,.58,6c.4,1.67,1,2.5,1.74,2.5S129.57,228.49,130.26,227.15Z"/><path class="cls-1" d="M162.32,239.68a12.9,12.9,0,0,1-4.32-4.83,2.5,2.5,0,0,1-.29-1.09,2.06,2.06,0,0,1,1.09-1.89,2.43,2.43,0,0,1,1.09-.29,2.12,2.12,0,0,1,1.85,1.09,3.89,3.89,0,0,0,3.34,2.18c4.57.11,7.95-12.71,7.91-19,0-5.7-.4-8.82-1.7-8.82-1.49,0-2.87,2.72-4,6.46a105.15,105.15,0,0,0-3.2,14.64,1.87,1.87,0,0,1-2,1.81c-5.19,0-7.81-4.79-7.81-14.34,0-5.08.07-9.66.26-13.69.25-6.53.39-13.07.39-19.57a2.32,2.32,0,0,1,2.4-2.61c3.12,0,6.79.43,6.79,5q0,6-.76,17.54c-.4,6-.58,10.35-.58,13.07a66.52,66.52,0,0,1,2.43-7.26c2-5.09,5-7.63,8.86-7.63,3.16,0,5.45,2.25,6.83,6.79a36.58,36.58,0,0,1,1.56,10.82c0,8.54-2.65,23.1-13.66,23.1A12.35,12.35,0,0,1,162.32,239.68Z"/><path class="cls-1" d="M190.68,232.67Q187,227,187,215.79a36.33,36.33,0,0,1,1.89-11.66c1.48-4.5,3.81-7.73,6.93-9.66a11.19,11.19,0,0,1,5.92-1.52,8.43,8.43,0,0,1,6.32,2.68c1.71,1.78,2.54,4.4,2.54,7.85,0,8.09-4.68,14.12-14.09,18A26.33,26.33,0,0,0,198,229c1,2.79,2.47,4.17,4.4,4.17,1.2,0,2.25-.87,3.19-2.61a13.5,13.5,0,0,0,1.45-6.61v-.76a2.22,2.22,0,0,1,2.18-2.29,2.09,2.09,0,0,1,2.15,2.07l0,1.23a17.78,17.78,0,0,1-2.29,9.08,9.47,9.47,0,0,1-8.67,5.12C196.38,238.37,193.11,236.48,190.68,232.67Zm12.74-21.28c1.89-3,2.83-5.59,2.83-7.88s-.65-3.26-2-3.26c-1.74,0-3.48,1.7-5.23,5.08a26.87,26.87,0,0,0-2.61,11.58A14.55,14.55,0,0,0,203.42,211.39Z"/><path class="cls-1" d="M219.22,232.71c-1.78-4.83-2.65-11-2.65-18.59,0-4.51.21-8.86.61-13.08.18-1.92,2.07-3,4.21-3a4.82,4.82,0,0,1,5.12,5.08c-.32,4.76-.5,8.79-.5,12l0,3.71a50.67,50.67,0,0,0,2.51,15,3,3,0,0,1,.14,1,2.18,2.18,0,0,1-.76,1.67,4.22,4.22,0,0,1-2.9,1C222.88,237.5,220.41,236.08,219.22,232.71Zm.54-40.13a7.37,7.37,0,0,1,0-8.27,3.83,3.83,0,0,1,3.12-1.75,3.73,3.73,0,0,1,3.09,1.75,7.18,7.18,0,0,1,0,8.27,3.79,3.79,0,0,1-3.09,1.71A3.89,3.89,0,0,1,219.76,192.58Z"/><path class="cls-1" d="M239.59,236.52c-3-4.54-4.76-11.77-5.34-21.61-.11-2.1-.18-4.21-.18-6.28q0-8.82,2.25-25.92a4.49,4.49,0,0,1,4.68-3.92c2.69-.11,4.83,2.61,4.69,5.59,0,.62-.15,1.92-.4,3.88a182.41,182.41,0,0,0-1.82,24q0,25.11,8.93,27.53a1.91,1.91,0,0,1,1.64,2,1.89,1.89,0,0,1-.95,1.74,2.32,2.32,0,0,1-1.23.36C246.88,243.85,242.82,241.42,239.59,236.52Z"/><path class="cls-1" d="M257.85,236.52c-3-4.54-4.76-11.77-5.34-21.61-.11-2.1-.18-4.21-.18-6.28q0-8.82,2.25-25.92a4.5,4.5,0,0,1,4.69-3.92c2.68-.11,4.82,2.61,4.68,5.59,0,.62-.15,1.92-.4,3.88a182.41,182.41,0,0,0-1.82,24q0,25.11,8.94,27.53a2,2,0,0,1,.69,3.7,2.36,2.36,0,0,1-1.24.36C265.15,243.85,261.08,241.42,257.85,236.52Z"/><path class="cls-1" d="M272.55,232.67q-3.65-5.71-3.66-16.88a36.06,36.06,0,0,1,1.89-11.66c1.48-4.5,3.81-7.73,6.93-9.66a11.19,11.19,0,0,1,5.92-1.52,8.43,8.43,0,0,1,6.32,2.68c1.7,1.78,2.54,4.4,2.54,7.85,0,8.09-4.69,14.12-14.09,18a26.33,26.33,0,0,0,1.45,7.48c1,2.79,2.47,4.17,4.4,4.17,1.19,0,2.25-.87,3.19-2.61a13.5,13.5,0,0,0,1.45-6.61v-.76a2.21,2.21,0,0,1,2.18-2.29,2.08,2.08,0,0,1,2.14,2.07l0,1.23a17.78,17.78,0,0,1-2.29,9.08,9.48,9.48,0,0,1-8.68,5.12C278.25,238.37,275,236.48,272.55,232.67Zm12.75-21.28c1.89-3,2.83-5.59,2.83-7.88s-.65-3.26-2-3.26c-1.74,0-3.49,1.7-5.23,5.08a26.72,26.72,0,0,0-2.61,11.58A14.55,14.55,0,0,0,285.3,211.39Z"/><path class="cls-1" d="M301,238.12a7.69,7.69,0,0,1-2.61-5.89,9.59,9.59,0,0,1,1.38-4.83c.54-1,1.2-1.48,1.89-1.48a1.85,1.85,0,0,1,1.89,1.88,2.43,2.43,0,0,1-.33,1.13,6.59,6.59,0,0,0-.84,3.16c0,2.47,1.09,3.56,2.55,3.56a5.52,5.52,0,0,0,4.17-2,6.34,6.34,0,0,0,1.89-4.47,8.66,8.66,0,0,0-1.78-5.62,25.18,25.18,0,0,0-4.18-4.29c-3.66-3.3-7.87-6.83-7.8-14.63-.15-7.19,6.93-12.35,12.74-12.31a10.14,10.14,0,0,1,6.79,2.58,10.44,10.44,0,0,1,3.56,6.9v.36a1.9,1.9,0,0,1-2,1.71,1.48,1.48,0,0,1-1.59-1.27c-.8-3.67-2.47-5.49-5-5.49-2.07,0-6.21,2.18-6.06,6.32,0,4.68,3.12,7.33,6.6,10,3.92,3.2,8.46,6.72,8.39,14.34.15,7.59-6.83,12.82-13.22,12.75A9,9,0,0,1,301,238.12Z"/><path class="cls-2" d="M131.53,94.1a7.59,7.59,0,0,1-.79-2.62q-.94-7.67-1.42-15.33c-.33-5.31-.68-12.22-1-20.77a2.5,2.5,0,0,1,1-2.05,3.68,3.68,0,0,1,2.31-.8,3.05,3.05,0,0,1,2.25,1A5.37,5.37,0,0,1,135,57l.24,4.94c.1,2.34.2,4.68.33,7a31.42,31.42,0,0,1,3.12-10.07c1.57-2.82,3.56-4.22,6-4.22q5.46,0,8.65,5.54a24.82,24.82,0,0,1,2.94,12.59c0,10.5-3.64,21.87-11.17,21.8a6.73,6.73,0,0,1-7-7,1.49,1.49,0,0,1,1.54-1.49,1.51,1.51,0,0,1,1.57,1.47,2.5,2.5,0,0,0,.7,1.77,2,2,0,0,0,1.25.57q3,0,4.71-5.91a44.42,44.42,0,0,0,1.55-12.34c0-6.66-1.82-13.12-5.41-13-1.62,0-3,2-4,6a75.13,75.13,0,0,0-1.92,12.86q-.6,7.31-.6,14.14V93a2.9,2.9,0,0,1-1,2.12,3.13,3.13,0,0,1-2.17.85A3.17,3.17,0,0,1,131.53,94.1Z"/><path class="cls-2" d="M162.28,89.06c-1.67-2.61-2.52-6.48-2.52-11.59a24.7,24.7,0,0,1,1.3-8,11.73,11.73,0,0,1,4.76-6.64,7.62,7.62,0,0,1,4.06-1,5.77,5.77,0,0,1,4.34,1.84A7.46,7.46,0,0,1,176,69c0,5.56-3.22,9.7-9.68,12.36a18.37,18.37,0,0,0,1,5.14c.7,1.92,1.7,2.87,3,2.87.82,0,1.54-.6,2.19-1.8a9.15,9.15,0,0,0,1-4.53v-.53A1.52,1.52,0,0,1,175,81a1.43,1.43,0,0,1,1.47,1.42l0,.85a12.22,12.22,0,0,1-1.57,6.23A6.5,6.5,0,0,1,169,93,7.62,7.62,0,0,1,162.28,89.06ZM171,74.45A10.43,10.43,0,0,0,173,69c0-1.49-.45-2.24-1.35-2.24-1.2,0-2.39,1.17-3.59,3.49a18.4,18.4,0,0,0-1.8,7.95A10,10,0,0,0,171,74.45Z"/><path class="cls-2" d="M181.8,92.8a5.26,5.26,0,0,1-1.79-4,6.5,6.5,0,0,1,1-3.32c.37-.67.82-1,1.29-1a1.27,1.27,0,0,1,1.3,1.29,1.71,1.71,0,0,1-.23.78,4.57,4.57,0,0,0-.57,2.17c0,1.69.75,2.44,1.75,2.44a3.78,3.78,0,0,0,2.86-1.37,4.33,4.33,0,0,0,1.3-3.07,6,6,0,0,0-1.22-3.86,18.08,18.08,0,0,0-2.87-3c-2.52-2.27-5.41-4.68-5.36-10-.1-4.93,4.76-8.47,8.75-8.45a7,7,0,0,1,4.67,1.77,7.21,7.21,0,0,1,2.44,4.74v.25a1.3,1.3,0,0,1-1.37,1.17,1,1,0,0,1-1.1-.87c-.55-2.52-1.7-3.77-3.47-3.77-1.42,0-4.26,1.5-4.16,4.34,0,3.22,2.14,5,4.54,6.88,2.69,2.2,5.81,4.62,5.76,9.85s-4.69,8.81-9.08,8.76A6.17,6.17,0,0,1,181.8,92.8Z"/><path class="cls-1" d="M56.37,186.07c-1.66-1.72-2.72-4.49-3.25-8.32q-1.41-9.92-1.41-28.68c0-3.48,0-7.14.17-11-2.53.29-5.13.65-7.67,1.12l-.59.06a2.81,2.81,0,0,1-1.53-.42,3.34,3.34,0,0,1-1.89-3.18,3.22,3.22,0,0,1,2.07-3.07,92.88,92.88,0,0,0,10-5,149.76,149.76,0,0,1,3.3-25.13c2.18-9.5,5.9-16.17,11.09-20.12a17,17,0,0,1,10.5-3.19c5.9,0,9.44,3.9,9.44,11,0,5-1.53,10.56-4.54,16.75a48.46,48.46,0,0,1-13.63,17.29c-.18,1.89-.35,3.9-.53,6.08,3.13.06,6.2.18,9.09.47a3.66,3.66,0,0,1,3.3,3.66,3.36,3.36,0,0,1-3.54,3.36c-3-.29-6.14-.41-9.32-.47-.3,5.72-.41,11.74-.41,18a212.19,212.19,0,0,0,1.41,26.37v1.18a5,5,0,0,1-1.71,3.84,7.12,7.12,0,0,1-5.07,2A7.57,7.57,0,0,1,56.37,186.07Zm21-83.79a30.92,30.92,0,0,0,2.36-10.62c0-3.18-.65-4.78-1.89-4.78-3.71,0-6.61,9.8-8.61,29.39A42.47,42.47,0,0,0,77.37,102.28Z"/><path class="cls-1" d="M100.32,171.14C95.48,163.76,92.59,152,91.65,136c-.18-3.42-.3-6.84-.3-10.21q0-14.32,3.66-42.12c.53-4.19,4-6.37,7.61-6.37,4.37-.18,7.85,4.24,7.62,9.08,0,1-.24,3.13-.65,6.31a296.27,296.27,0,0,0-3,39q0,40.8,14.51,44.73a3.29,3.29,0,0,1,1.12,6,3.78,3.78,0,0,1-2,.59C112.18,183.06,105.57,179.1,100.32,171.14Z"/><path class="cls-1" d="M124.22,164.88c-4-6.19-6-15.34-6-27.43a58.8,58.8,0,0,1,3.07-18.94c2.42-7.32,6.19-12.57,11.27-15.7a18.08,18.08,0,0,1,9.61-2.47,13.68,13.68,0,0,1,10.27,4.36c2.77,2.89,4.13,7.14,4.13,12.75,0,13.15-7.61,23-22.89,29.26a42.58,42.58,0,0,0,2.36,12.16c1.65,4.54,4,6.78,7.14,6.78,1.94,0,3.66-1.42,5.19-4.25a21.94,21.94,0,0,0,2.36-10.74v-1.23a3.59,3.59,0,0,1,3.54-3.72,3.38,3.38,0,0,1,3.48,3.36l.06,2a29,29,0,0,1-3.72,14.75c-3.24,5.54-7.9,8.32-14.1,8.32C133.48,174.15,128.17,171.08,124.22,164.88Zm20.71-34.57c3.07-4.84,4.6-9.09,4.6-12.8q0-5.31-3.19-5.31c-2.83,0-5.66,2.77-8.49,8.26-2.6,5-4,11.26-4.25,18.82A23.63,23.63,0,0,0,144.93,130.31Z"/><path class="cls-1" d="M213.31,179.52c-9-1-14.22-13.1-15.4-23.55-2.65,8.62-7.37,16.82-14.93,16.82-6.43,0-10.79-5.13-13.62-12.63a61.43,61.43,0,0,1-3.07-12.33A88.74,88.74,0,0,1,165.17,132q0-19.47,5-22.48a7.8,7.8,0,0,1,4.13-1.18,7.27,7.27,0,0,1,5.78,2.54,7.87,7.87,0,0,1,2.31,5.49,9.86,9.86,0,0,1-.42,2.83c-.82,2.83-1.24,8.26-1.24,16.34,0,10.68.71,18.41,2.13,23.13.76,2.54,1.83,3.78,3.12,3.78,4.31,0,8-14.81,11-44.37.41-4.19.7-7.32.89-9.44l.11-1.18c.48-3.72,3.48-5.43,6.85-5.43a8,8,0,0,1,5.72,2.53c1.77,1.66,2.66,4.08,2.66,7.32-.07,3.48-.19,7.2-.36,11.21-.3,5.61-.42,11.33-.42,17.11,0,3.42.07,6.85.19,10.33a76.35,76.35,0,0,0,4.48,24.78,2.86,2.86,0,0,1,.24,1.12,3.15,3.15,0,0,1-.83,2,3.39,3.39,0,0,1-2.66,1.24A1.63,1.63,0,0,1,213.31,179.52Z"/><path class="cls-1" d="M227.47,170.25Q225,167.51,225,161.4q0-26.1-.88-34.69a138.3,138.3,0,0,0-2.54-16.4,9.94,9.94,0,0,1-.18-1.83,5.41,5.41,0,0,1,1.3-3.72,6.08,6.08,0,0,1,4.84-2.12c3.72,0,7.55,3,9.14,10.44A90,90,0,0,1,238.09,126c3.72-15.63,8.32-24.25,13.75-25.72a13.17,13.17,0,0,1,3.66-.53,9.78,9.78,0,0,1,3.89.76,3.42,3.42,0,0,1,2.36,3.42,3.78,3.78,0,0,1-3.84,3.78c-1.12,0-2.3-.35-3.77-.35-3.6,0-7.44,10.79-11.62,32.33-1.13,5.84-2,14.93-2.6,27.32-.18,4-2.48,5.9-6.79,6A7.61,7.61,0,0,1,227.47,170.25Z"/><path class="cls-1" d="M266.06,173.73a12.42,12.42,0,0,1-4.25-9.55,15.62,15.62,0,0,1,2.24-7.85c.89-1.59,1.95-2.42,3.07-2.42a3,3,0,0,1,3.07,3.07,4,4,0,0,1-.53,1.83,10.7,10.7,0,0,0-1.36,5.13c0,4,1.77,5.78,4.13,5.78a9,9,0,0,0,6.78-3.24,10.31,10.31,0,0,0,3.07-7.26,14.14,14.14,0,0,0-2.89-9.15,42.65,42.65,0,0,0-6.78-7c-6-5.37-12.81-11.09-12.69-23.78-.24-11.68,11.27-20.06,20.71-20a16.51,16.51,0,0,1,11,4.19,17,17,0,0,1,5.79,11.21v.59c0,1.65-1.66,2.78-3.25,2.78a2.42,2.42,0,0,1-2.6-2.07c-1.29-6-4-8.91-8.2-8.91-3.36,0-10.09,3.54-9.85,10.27,0,7.61,5.07,11.92,10.74,16.28,6.37,5.19,13.75,10.92,13.63,23.31.23,12.33-11.09,20.83-21.48,20.71A14.6,14.6,0,0,1,266.06,173.73Z"/><path class="cls-2" d="M54,229.25A12.89,12.89,0,0,1,48,224.6a19.72,19.72,0,0,1-3.06.24c-2.61,0-3.92-.74-3.92-2.2a3.67,3.67,0,0,1,1-2,33.43,33.43,0,0,1,2.45-2.81,30.37,30.37,0,0,1-2.22-10.4c0-4,2.68-7.49,6.9-7.43,3.16,0,5.27,2.59,5.27,5.67a11,11,0,0,1-2.2,5.88A45,45,0,0,1,48,216.59a34.2,34.2,0,0,0,2.46,5.75L53,222c.45,0,.68.29.68.88a.69.69,0,0,1-.13.41.84.84,0,0,1-.55.38l-1.5.34a14.7,14.7,0,0,0,3.35,3.71.84.84,0,0,1,.27,1.12.83.83,0,0,1-.79.48A1.24,1.24,0,0,1,54,229.25Zm-7.17-6.34c-.61-1-1.17-2.14-1.69-3.27l-.43.41c-1.3,1.28-1.94,2.16-1.94,2.61,0,.25.52.38,1.56.38A22.86,22.86,0,0,0,46.86,222.91Zm5.73-17.29c0-1.86-.65-2.79-1.93-2.79-1.78,0-4.21,2.66-4.14,5.63a25.26,25.26,0,0,0,.9,6.1C50.12,211.66,52.59,208.37,52.59,205.62Z"/><path class="cls-2" d="M79.51,227.7c-3.27-.47-4.82-4.54-5.09-8.17-1.22,2.95-2.93,4.43-5.15,4.43-1.56,0-2.57-1.07-3.22-2.56a11.81,11.81,0,0,1-.72-2.43,18.78,18.78,0,0,1-.3-3.46,16.55,16.55,0,0,1,.5-4,8.39,8.39,0,0,1,3-5,4.73,4.73,0,0,1,2.84-.85,4.22,4.22,0,0,1,3.3,1.64q.92-9.72,2-10.46a2.37,2.37,0,0,1,1.26-.36,2.41,2.41,0,0,1,1.82.81,2.75,2.75,0,0,1,.77,2,3,3,0,0,1,0,.58c-.22,1.31-.47,3.2-.77,5.67s-.51,4.73-.63,6.78S79,216,79,217.15c0,1.37.05,2.67.14,3.91A9.53,9.53,0,0,0,80.49,226a1.17,1.17,0,0,1,.27.71.91.91,0,0,1-.17.5,1,1,0,0,1-.9.54ZM72,219.62a14.86,14.86,0,0,0,1.56-3.69,16,16,0,0,0,.61-4.59,4,4,0,0,0-.14-1.13c-.27-.8-.67-1.19-1.17-1.19s-1,.39-1.48,1.17a10.18,10.18,0,0,0-1.18,2.95,16.71,16.71,0,0,0-.53,4.32c0,2.36.29,3.54.85,3.54C71,221,71.45,220.54,72,219.62Z"/><path class="cls-2" d="M84.36,223.54q-1.81-2.83-1.82-8.37a17.92,17.92,0,0,1,.93-5.77,8.44,8.44,0,0,1,3.44-4.79,5.48,5.48,0,0,1,2.94-.76A4.19,4.19,0,0,1,93,205.18a5.45,5.45,0,0,1,1.26,3.89c0,4-2.32,7-7,8.93a13.34,13.34,0,0,0,.72,3.71c.51,1.38,1.23,2.07,2.18,2.07.6,0,1.12-.44,1.59-1.3a6.75,6.75,0,0,0,.72-3.28v-.37a1.1,1.1,0,0,1,1.08-1.14,1,1,0,0,1,1.06,1l0,.61a8.8,8.8,0,0,1-1.14,4.5,4.7,4.7,0,0,1-4.3,2.54A5.49,5.49,0,0,1,84.36,223.54ZM90.67,213a7.57,7.57,0,0,0,1.41-3.91c0-1.08-.33-1.62-1-1.62-.87,0-1.73.85-2.6,2.52a13.33,13.33,0,0,0-1.29,5.74A7.18,7.18,0,0,0,90.67,213Z"/><path class="cls-2" d="M98.45,226.24a3.77,3.77,0,0,1-1.3-2.91,4.79,4.79,0,0,1,.69-2.4c.27-.48.59-.74.93-.74a.93.93,0,0,1,.94.94,1.33,1.33,0,0,1-.16.56,3.26,3.26,0,0,0-.42,1.56c0,1.23.54,1.77,1.26,1.77a2.75,2.75,0,0,0,2.07-1,3.17,3.17,0,0,0,.94-2.22,4.35,4.35,0,0,0-.88-2.79,13.31,13.31,0,0,0-2.07-2.12c-1.82-1.64-3.91-3.38-3.87-7.25-.08-3.57,3.43-6.12,6.31-6.1a5.07,5.07,0,0,1,3.37,1.27,5.21,5.21,0,0,1,1.76,3.42v.18a.94.94,0,0,1-1,.85.74.74,0,0,1-.79-.63c-.39-1.82-1.22-2.72-2.5-2.72a3.22,3.22,0,0,0-3,3.13c0,2.33,1.55,3.64,3.28,5,1.94,1.58,4.19,3.33,4.16,7.11s-3.39,6.35-6.55,6.32A4.45,4.45,0,0,1,98.45,226.24Z"/><path class="cls-2" d="M312.2,140A38.73,38.73,0,0,1,325,115c2-1.76,8.44-7,9.26-1.64.32,2.11-1,4.17-2.14,5.84a56.51,56.51,0,0,1-4.83,6.08,63.56,63.56,0,0,1-13.67,11.44c-2.34,1.45-.86,5.45,1.93,4.57,12.46-3.93,26.84,2.47,32.4,14.26l1.5-3.67c-10.18,2.81-20.27-3.15-28.29-8.83-2-1.44-4.78,1.4-3.42,3.42a116.27,116.27,0,0,1,9.68,17.25,96.29,96.29,0,0,1,3.58,9c.88,2.61,1.92,5.88.78,8.57l2.82-1.15c-5-2.11-8.78-6.52-11.33-11.18-3.19-5.81-4.68-12.38-6.19-18.77-.74-3.13-5.56-1.81-4.82,1.33,1.67,7.07,3.41,14.28,7.07,20.64a29.41,29.41,0,0,0,13.94,12.8,2.49,2.49,0,0,0,2.83-1.15c2.93-6.94-.85-14.55-3.63-20.94A116.62,116.62,0,0,0,322,143.9l-3.42,3.43c9.19,6.51,20.58,12.52,32.14,9.33a2.54,2.54,0,0,0,1.49-3.67c-6.47-13.72-23.62-21.11-38.05-16.56l1.92,4.56a68.94,68.94,0,0,0,14.41-11.91,66.61,66.61,0,0,0,5.89-7.4c1.68-2.48,3.12-5.44,2.81-8.53a7.8,7.8,0,0,0-4.92-6.84c-3.09-1.11-6.47.28-9,2a42.54,42.54,0,0,0-11.91,12.79A43.94,43.94,0,0,0,307.2,140a2.52,2.52,0,0,0,2.5,2.5,2.55,2.55,0,0,0,2.5-2.5Z"/><path class="cls-2" d="M47.63,101.58a58.41,58.41,0,0,1,6.68-17,55.5,55.5,0,0,1,5.07-7.29c1-1.17,2-2.31,3-3.4.77-.8,1.78-2,3-2.07,3.21-.12,3.22-5.12,0-5-3.69.14-6.2,3.08-8.47,5.67a63.57,63.57,0,0,0-6.27,8.5,62.84,62.84,0,0,0-7.83,19.31c-.69,3.14,4.12,4.47,4.82,1.33Z"/><path class="cls-2" d="M39,86l.24-.7.13-.34c.14-.37,0-.06-.06.12.22-.45.41-.9.64-1.33s.48-.85.75-1.27c.14-.2.27-.4.42-.6l.26-.36c.26-.35-.27.33-.08.1a18.59,18.59,0,0,1,2-2.13c.18-.17.37-.33.56-.48s.07,0-.1.07a3.15,3.15,0,0,0,.29-.22c.42-.3.85-.58,1.29-.85a2.5,2.5,0,1,0-2.52-4.32,20,20,0,0,0-8.67,11A2.52,2.52,0,0,0,36,87.77,2.55,2.55,0,0,0,39,86Z"/><path class="cls-2" d="M324.18,218.37a19.7,19.7,0,0,1-2.43,19.79,2.56,2.56,0,0,0,0,3.53,2.51,2.51,0,0,0,3.53,0,24.89,24.89,0,0,0,3.22-25.84,2.52,2.52,0,0,0-3.42-.9,2.56,2.56,0,0,0-.9,3.42Z"/></svg>